<svg id="Layer_1" data-name="Layer 1" xmlns="http://www.w3.org/2000/svg" viewBox="0 0 60.664 49.095"><defs><style>.cls-1{fill:#333;}.cls-2{fill:none;stroke:#333;stroke-miterlimit:10;stroke-width:2.4px;}</style></defs><title>hl-logo-333-filled</title><polygon class="cls-1" points="56.162 2.91 52.322 6.74 8.342 6.74 4.502 2.91 4.502 2.25 56.162 2.25 56.162 2.91"/><path class="cls-1" d="M45,26.33V43.66a1.531,1.531,0,0,1-.91,1.4l-6.38,2.86a1.533,1.533,0,0,1-2.16-1.4V45.25a1.541,1.541,0,0,0-1.54-1.54H29.99a1.541,1.541,0,0,0-1.54,1.54v5.84a1.53,1.53,0,0,1-.83,1.36l-6.38,3.32A1.533,1.533,0,0,1,19,54.41V26.33a1.541,1.541,0,0,1,1.54-1.54h6.38a1.539,1.539,0,0,1,1.53,1.54v8.75a1.541,1.541,0,0,0,1.54,1.54h4.02a1.541,1.541,0,0,0,1.54-1.54V26.33a1.539,1.539,0,0,1,1.53-1.54h6.38A1.541,1.541,0,0,1,45,26.33Z" transform="translate(-1.668 -8.05)"/><path class="cls-1" d="M57.83,10.3H6.17v.66l3.84,3.83H53.99l3.84-3.83ZM8.75,16.71,4.26,12.22a1.136,1.136,0,0,1-.33-.8V9.18A1.127,1.127,0,0,1,5.05,8.05h53.9a1.127,1.127,0,0,1,1.12,1.13v2.24a1.136,1.136,0,0,1-.33.8l-4.49,4.49a1.112,1.112,0,0,1-.79.33H9.54A1.112,1.112,0,0,1,8.75,16.71Z" transform="translate(-1.668 -8.05)"/><path class="cls-1" d="M9.49,34.63A7.243,7.243,0,0,1,1.7,28a8.181,8.181,0,0,1,7.58-8.71,1.111,1.111,0,0,1,.26-.01H54.46a2.26,2.26,0,0,1,.26.01A8.181,8.181,0,0,1,62.3,28a7.243,7.243,0,0,1-7.79,6.63,6.286,6.286,0,0,1-5.67-6.88,5.334,5.334,0,0,1,5.97-4.71,4.386,4.386,0,0,1,3.73,5.09,3.669,3.669,0,0,1-1.46,2.23,3.155,3.155,0,0,1-2.79.48,2.709,2.709,0,0,1-1.54-1.24,2.271,2.271,0,0,1,0-2.31,1.623,1.623,0,0,1,1.29-.82,1.474,1.474,0,0,1,1.08.21,1.542,1.542,0,0,1,.64,1.22,1.172,1.172,0,0,1-.33.8,1.152,1.152,0,0,0,.34-.16,1.581,1.581,0,0,0,.57-.88,2.162,2.162,0,0,0-1.88-2.4,3.114,3.114,0,0,0-3.39,2.78,4.05,4.05,0,0,0,3.68,4.35,5,5,0,0,0,5.31-4.6,5.939,5.939,0,0,0-5.52-6.26.249.249,0,0,1-.08-.01H9.54c-.03,0-.06.01-.08.01a5.939,5.939,0,0,0-5.52,6.26,5,5,0,0,0,5.31,4.6,4.05,4.05,0,0,0,3.68-4.35,3.114,3.114,0,0,0-3.39-2.78,2.162,2.162,0,0,0-1.88,2.4,1.581,1.581,0,0,0,.57.88,1.152,1.152,0,0,0,.34.16,1.177,1.177,0,0,1-.33-.81,1.538,1.538,0,0,1,.64-1.21,1.474,1.474,0,0,1,1.08-.21,1.623,1.623,0,0,1,1.29.82,2.271,2.271,0,0,1,0,2.31,2.709,2.709,0,0,1-1.54,1.24,3.155,3.155,0,0,1-2.79-.48,3.669,3.669,0,0,1-1.46-2.23,4.386,4.386,0,0,1,3.73-5.09,5.334,5.334,0,0,1,5.97,4.71A6.286,6.286,0,0,1,9.49,34.63Z" transform="translate(-1.668 -8.05)"/><path class="cls-2" d="M45,26.33V43.66a1.531,1.531,0,0,1-.91,1.4l-6.38,2.86a1.533,1.533,0,0,1-2.16-1.4V45.25a1.541,1.541,0,0,0-1.54-1.54H29.99a1.541,1.541,0,0,0-1.54,1.54v5.84a1.53,1.53,0,0,1-.83,1.36l-6.38,3.32A1.533,1.533,0,0,1,19,54.41V26.33a1.541,1.541,0,0,1,1.54-1.54h6.38a1.539,1.539,0,0,1,1.53,1.54v8.75a1.541,1.541,0,0,0,1.54,1.54h4.02a1.541,1.541,0,0,0,1.54-1.54V26.33a1.539,1.539,0,0,1,1.53-1.54h6.38A1.541,1.541,0,0,1,45,26.33Z" transform="translate(-1.668 -8.05)"/></svg>