<svg id="Layer_1" data-name="Layer 1" xmlns="http://www.w3.org/2000/svg" viewBox="0 0 32.816 27.601"><defs><style>.cls-1{fill:#2284b9;}</style></defs><title>hl-logo-trad-2284b9</title><path class="cls-1" d="M32.816,21.525l-.545-.117a11.017,11.017,0,0,1-1.716,3.046,4.719,4.719,0,0,1-1.9,1.346,11.878,11.878,0,0,1-3.615.379H23.408a10.739,10.739,0,0,1-2.575-.165,1.171,1.171,0,0,1-.611-.512,4.553,4.553,0,0,1-.265-1.881V9.557a7.176,7.176,0,0,1,.265-2.525,2.018,2.018,0,0,1,.982-.875,6.185,6.185,0,0,1,2.5-.331V5.215H13.569v.609h.792a3.038,3.038,0,0,1,1.5.4,1.579,1.579,0,0,1,.58.54,3.488,3.488,0,0,1,.288,1.221c.025.341.04.733.04,1.21V15.6H6.372V9.194a7.621,7.621,0,0,1,.2-2.186,1.43,1.43,0,0,1,.709-.8,3.141,3.141,0,0,1,1.5-.38h.809V5.217H0v.611H.792a3.13,3.13,0,0,1,1.519.4,1.487,1.487,0,0,1,.676.71A7.477,7.477,0,0,1,3.2,9.194V23.64a5.023,5.023,0,0,1-.4,2.541,2.391,2.391,0,0,1-2.014.81H0V27.6H9.591V26.99H8.782a3.031,3.031,0,0,1-1.5-.4,1.477,1.477,0,0,1-.693-.709,7.4,7.4,0,0,1-.215-2.245V16.822h10.4V23.64a5.111,5.111,0,0,1-.385,2.487,1.908,1.908,0,0,1-.178.2,1.863,1.863,0,0,1-.176.174,1.934,1.934,0,0,1-.189.12,2.013,2.013,0,0,1-.278.155c-.049.021-.107.032-.16.05a2.633,2.633,0,0,1-.392.109c-.094.016-.2.018-.3.026s-.215.026-.334.026h-.81V27.6H30.9Z" transform="translate(0 -5.215)"/><rect class="cls-1" y="26.188" width="32.816" height="1.413"/></svg>