<svg id="Layer_1" data-name="Layer 1" xmlns="http://www.w3.org/2000/svg" viewBox="0 0 32.816 32.816"><defs><style>.cls-1{fill:#333;}.cls-2{fill:#fff;}</style></defs><title>hl-logo-trad-square-333</title><rect class="cls-1" width="32.816" height="32.816"/><path class="cls-2" d="M22.875,26.215l-.328-.07a6.624,6.624,0,0,1-1.032,1.831,2.837,2.837,0,0,1-1.141.809,7.142,7.142,0,0,1-2.174.228h-.983a6.457,6.457,0,0,1-1.549-.1.7.7,0,0,1-.367-.308,2.738,2.738,0,0,1-.159-1.131V19.018A4.315,4.315,0,0,1,15.3,17.5a1.213,1.213,0,0,1,.591-.526,3.719,3.719,0,0,1,1.5-.2v-.367H11.3v.366h.476a1.827,1.827,0,0,1,.9.238.949.949,0,0,1,.349.325,2.1,2.1,0,0,1,.173.734c.015.205.024.441.024.727v3.852H6.975V18.8a4.582,4.582,0,0,1,.119-1.315A.86.86,0,0,1,7.521,17a1.889,1.889,0,0,1,.9-.229H8.91v-.367H3.144v.367H3.62a1.882,1.882,0,0,1,.913.238.894.894,0,0,1,.407.427A4.5,4.5,0,0,1,5.069,18.8v8.686a3.02,3.02,0,0,1-.238,1.528A1.438,1.438,0,0,1,3.62,29.5H3.144v.367H8.91V29.5H8.424a1.822,1.822,0,0,1-.9-.238.888.888,0,0,1-.417-.427,4.45,4.45,0,0,1-.129-1.35v-4.1h6.253v4.1a3.073,3.073,0,0,1-.232,1.5,1.147,1.147,0,0,1-.107.122,1.12,1.12,0,0,1-.106.1,1.163,1.163,0,0,1-.114.072,1.21,1.21,0,0,1-.167.093c-.03.013-.065.019-.1.03a1.583,1.583,0,0,1-.236.066c-.056.01-.12.011-.181.016s-.129.016-.2.016H11.3v.366H21.724Z"/><circle class="cls-2" cx="27.6" cy="28.178" r="1.6"/></svg>