<svg id="Layer_1" data-name="Layer 1" xmlns="http://www.w3.org/2000/svg" viewBox="0 0 52.975 61.98"><defs><style>.cls-1,.cls-2{fill:#fff;stroke:#fff;stroke-miterlimit:10;}.cls-2{stroke-width:0.75px;}</style></defs><title>hl-logo</title><path class="cls-1" d="M24.237,43.575h4.5a0,0,0,0,1,0,0V59.229a2.25,2.25,0,0,1-2.25,2.25h0a2.25,2.25,0,0,1-2.25-2.25V43.575A0,0,0,0,1,24.237,43.575Z"/><path class="cls-1" d="M47.752,18.134h-31.5a4.5,4.5,0,0,0-4.5,4.5V51.186a2.25,2.25,0,1,0,4.5,0V22.635h4.5v34.6a2.25,2.25,0,0,0,4.5,0v-34.6h4.5V36.7h4.5V22.635h4.5v34.6a2.25,2.25,0,1,0,4.5,0v-34.6h4.5V51.186a2.25,2.25,0,1,0,4.5,0V22.635A4.5,4.5,0,0,0,47.752,18.134Z" transform="translate(-5.513 -1.52)"/><path class="cls-2" d="M6.932,1.9c-.577,0-1.044.667-1.044,1.49V6.364a1.857,1.857,0,0,0,.306,1.053l4.178,5.959a.92.92,0,0,0,.738.436H52.89a.92.92,0,0,0,.738-.436l4.178-5.959a1.858,1.858,0,0,0,.306-1.053V3.385c0-.823-.468-1.49-1.044-1.49ZM7.977,4.875H56.023v.872l-3.566,5.086H11.543L7.977,5.747Z" transform="translate(-5.513 -1.52)"/></svg>
