<svg id="Layer_1" data-name="Layer 1" xmlns="http://www.w3.org/2000/svg" viewBox="0 0 64 64"><defs><style>.cls-1{fill:#333;}.cls-2,.cls-3{fill:#fff;}.cls-3{stroke:#fff;stroke-miterlimit:10;}</style></defs><title>hl-logo-333-circle</title><circle class="cls-1" cx="32" cy="32" r="32"/><path class="cls-2" d="M30.778,39.369h2.444a0,0,0,0,1,0,0v8.5A1.222,1.222,0,0,1,32,49.093h0a1.222,1.222,0,0,1-1.222-1.222v-8.5A0,0,0,0,1,30.778,39.369Z"/><path class="cls-2" d="M40.555,24.726H23.445A2.444,2.444,0,0,0,21,27.171V42.676a1.222,1.222,0,1,0,2.444,0V27.171h2.444v18.79a1.222,1.222,0,0,0,2.444,0V27.171h2.444v7.638h2.444V27.171h2.444v18.79a1.222,1.222,0,0,0,2.444,0V27.171h2.444V42.676a1.222,1.222,0,1,0,2.444,0V27.171A2.444,2.444,0,0,0,40.555,24.726Z"/><path class="cls-3" d="M18.386,14.907c-.313,0-.567.362-.567.809v1.618a1.009,1.009,0,0,0,.166.572l2.269,3.236a.5.5,0,0,0,.4.237h22.69a.5.5,0,0,0,.4-.237l2.269-3.236a1.009,1.009,0,0,0,.166-.572V15.716c0-.447-.254-.809-.567-.809Zm.567,1.618H45.047V17L43.11,19.761H20.89L18.953,17Z"/></svg>