<svg id="Layer_1" data-name="Layer 1" xmlns="http://www.w3.org/2000/svg" viewBox="0 0 60.667 49.091"><defs><style>.cls-1{fill:#333;}.cls-2{fill:none;stroke:#333;stroke-miterlimit:10;stroke-width:2.4px;}</style></defs><title>hl-logo-333</title><path class="cls-1" d="M9.278,19.289A8.183,8.183,0,0,0,1.7,28a7.234,7.234,0,0,0,7.788,6.63,6.285,6.285,0,0,0,5.674-6.873,5.334,5.334,0,0,0-5.969-4.711,4.379,4.379,0,0,0-3.729,5.085A3.688,3.688,0,0,0,6.92,30.36a3.165,3.165,0,0,0,2.788.476,2.717,2.717,0,0,0,1.547-1.24,2.271,2.271,0,0,0,0-2.3,1.587,1.587,0,0,0-1.295-.819,1.443,1.443,0,0,0-1.079.2,1.557,1.557,0,0,0-.632,1.218,1.122,1.122,0,0,0,.323.8,1.041,1.041,0,0,1-.336-.16,1.563,1.563,0,0,1-.573-.876,2.165,2.165,0,0,1,1.885-2.4,3.113,3.113,0,0,1,3.389,2.776,4.06,4.06,0,0,1-3.683,4.356,5.008,5.008,0,0,1-5.314-4.6,5.955,5.955,0,0,1,5.521-6.265l.085-.005H54.459l.085.005a5.955,5.955,0,0,1,5.521,6.265,5.008,5.008,0,0,1-5.314,4.6,4.06,4.06,0,0,1-3.683-4.356,3.112,3.112,0,0,1,3.389-2.776,2.164,2.164,0,0,1,1.885,2.4,1.562,1.562,0,0,1-.573.876,1.044,1.044,0,0,1-.335.16,1.123,1.123,0,0,0,.322-.8,1.557,1.557,0,0,0-.632-1.218,1.443,1.443,0,0,0-1.079-.2,1.588,1.588,0,0,0-1.3.819,2.271,2.271,0,0,0,0,2.3,2.716,2.716,0,0,0,1.547,1.24,3.164,3.164,0,0,0,2.788-.476,3.688,3.688,0,0,0,1.458-2.233,4.379,4.379,0,0,0-3.729-5.085,5.334,5.334,0,0,0-5.969,4.711,6.285,6.285,0,0,0,5.674,6.873A7.234,7.234,0,0,0,62.3,28a8.183,8.183,0,0,0-7.58-8.707,1.927,1.927,0,0,0-.263-.01H9.542a2.036,2.036,0,0,0-.263.011ZM5.05,8.054A1.123,1.123,0,0,0,3.927,9.177v2.246a1.122,1.122,0,0,0,.329.794l4.492,4.492a1.123,1.123,0,0,0,.794.329H54.458a1.122,1.122,0,0,0,.794-.329l4.492-4.492a1.123,1.123,0,0,0,.329-.794V9.177A1.123,1.123,0,0,0,58.95,8.054ZM6.173,10.3H57.827v.658l-3.834,3.834H10.006L6.173,10.958Z" transform="translate(-1.667 -8.054)"/><path class="cls-2" d="M45,26.333V43.655a1.539,1.539,0,0,1-.909,1.4l-6.38,2.862a1.539,1.539,0,0,1-2.168-1.4V45.246a1.539,1.539,0,0,0-1.539-1.539H29.992a1.539,1.539,0,0,0-1.539,1.539v5.843a1.539,1.539,0,0,1-.829,1.365l-6.38,3.316A1.539,1.539,0,0,1,19,54.405V26.333a1.539,1.539,0,0,1,1.539-1.539h6.38a1.539,1.539,0,0,1,1.539,1.539v8.744a1.539,1.539,0,0,0,1.539,1.539h4.016a1.539,1.539,0,0,0,1.539-1.539V26.333a1.539,1.539,0,0,1,1.539-1.539h6.38A1.539,1.539,0,0,1,45,26.333Z" transform="translate(-1.667 -8.054)"/></svg>